<svg width="9935" height="1200" viewBox="0 0 9935 1200" fill="none" xmlns="http://www.w3.org/2000/svg">
<path d="M638.5 1019.11V1021H352.5V1019.01L352.469 1019.02L226.833 664H392.312L463.442 865H527.738L678.898 440H844.473L638.5 1019.11ZM512.289 706H478.846L439.771 596H190C165.049 596 140.342 591.086 117.29 581.537C94.2382 571.989 73.2925 557.994 55.6494 540.351C38.0063 522.707 24.0113 501.762 14.4629 478.71C4.91451 455.658 -4.22726e-10 430.951 0 406C6.64291e-06 381.049 4.91449 356.342 14.4629 333.29C24.0113 310.238 38.0063 289.293 55.6494 271.649C73.2925 254.006 94.2382 240.011 117.29 230.463C140.342 220.915 165.049 216 190 216H687L631.574 372H190V371.99C185.534 371.99 181.112 372.87 176.985 374.579C172.859 376.288 169.109 378.793 165.951 381.951C162.793 385.109 160.288 388.859 158.579 392.985C156.87 397.112 155.99 401.534 155.99 406C155.99 410.466 156.87 414.888 158.579 419.015C160.288 423.141 162.793 426.891 165.951 430.049C169.109 433.207 172.859 435.712 176.985 437.421C181.112 439.13 185.534 440.01 190 440.01V440H607.209L551.819 596H551.796L512.289 706Z" fill="#D7FE3F"/>
<path d="M1381.47 1008C1334.81 1008 1290.81 999.667 1249.47 983C1208.81 965.667 1173.47 941.333 1143.47 910C1114.14 878.667 1092.14 841.667 1077.47 799L1204.47 742C1223.14 782.667 1248.81 814.667 1281.47 838C1314.81 861.333 1351.47 873 1391.47 873C1412.81 873 1431.14 869.667 1446.47 863C1461.81 856.333 1473.81 847.333 1482.47 836C1491.14 824 1495.47 810 1495.47 794C1495.47 776.667 1490.14 762 1479.47 750C1468.81 737.333 1452.14 727.333 1429.47 720L1283.47 672C1224.14 652.667 1179.47 625.333 1149.47 590C1119.47 554 1104.47 511 1104.47 461C1104.47 417 1115.14 378.333 1136.47 345C1158.47 311.667 1188.81 285.667 1227.47 267C1266.81 248.333 1311.81 239 1362.47 239C1407.14 239 1448.47 246.667 1486.47 262C1524.47 277.333 1557.14 299 1584.47 327C1612.47 355 1633.47 388.667 1647.47 428L1521.47 485C1507.47 450.333 1486.47 423.333 1458.47 404C1430.47 384 1398.47 374 1362.47 374C1341.81 374 1323.47 377.333 1307.47 384C1291.47 390.667 1279.14 400.333 1270.47 413C1261.81 425 1257.47 439 1257.47 455C1257.47 472.333 1263.14 487.667 1274.47 501C1285.81 513.667 1302.81 523.667 1325.47 531L1468.47 577C1528.47 596.333 1573.14 623.333 1602.47 658C1632.47 692.667 1647.47 735 1647.47 785C1647.47 828.333 1636.14 867 1613.47 901C1590.81 934.333 1559.47 960.667 1519.47 980C1480.14 998.667 1434.14 1008 1381.47 1008ZM2130.93 1008C2074.93 1008 2022.93 998.333 1974.93 979C1926.93 959.667 1884.93 932.667 1848.93 898C1813.6 862.667 1785.93 821.667 1765.93 775C1745.93 728.333 1735.93 677.667 1735.93 623C1735.93 568.333 1745.6 517.667 1764.93 471C1784.93 424.333 1812.6 383.667 1847.93 349C1883.93 314.333 1925.93 287.333 1973.93 268C2021.93 248.667 2074.27 239 2130.93 239C2187.6 239 2239.93 248.667 2287.93 268C2335.93 287.333 2377.6 314.333 2412.93 349C2448.93 383.667 2476.6 424.333 2495.93 471C2515.93 517.667 2525.93 568.333 2525.93 623C2525.93 677.667 2515.93 728.333 2495.93 775C2475.93 821.667 2447.93 862.667 2411.93 898C2376.6 932.667 2334.93 959.667 2286.93 979C2238.93 998.333 2186.93 1008 2130.93 1008ZM2130.93 868C2164.93 868 2196.27 862 2224.93 850C2254.27 838 2279.93 821.333 2301.93 800C2323.93 778 2340.93 752 2352.93 722C2364.93 692 2370.93 659 2370.93 623C2370.93 587 2364.93 554.333 2352.93 525C2340.93 495 2323.93 469 2301.93 447C2279.93 425 2254.27 408.333 2224.93 397C2196.27 385 2164.93 379 2130.93 379C2096.93 379 2065.27 385 2035.93 397C2007.27 408.333 1981.93 425 1959.93 447C1937.93 469 1920.93 495 1908.93 525C1896.93 554.333 1890.93 587 1890.93 623C1890.93 659 1896.93 692 1908.93 722C1920.93 752 1937.93 778 1959.93 800C1981.93 821.333 2007.27 838 2035.93 850C2065.27 862 2096.93 868 2130.93 868ZM2635.86 996V251H2790.86V861H3105.86V996H2635.86ZM3182.74 996V251H3337.74V996H3182.74ZM3669.85 996L3414.85 251H3584.85L3776.85 849H3742.85L3934.85 251H4104.85L3849.85 996H3669.85ZM4086.72 996L4338.72 251H4544.72L4796.72 996H4627.72L4577.72 844H4304.72L4254.72 996H4086.72ZM4347.72 709H4534.72L4420.72 357H4462.72L4347.72 709ZM4958.34 996V386H4769.34V251H5299.34V386H5113.34V996H4958.34ZM5376.1 996V251H5877.1V386H5531.1V555H5857.1V690H5531.1V861H5877.1V996H5376.1Z" fill="white"/>
<path d="M6538.47 1033C6491.14 1033 6448.14 1024 6409.47 1006C6370.81 988 6338.14 964 6311.47 934C6284.81 903.333 6265.81 869.667 6254.47 833L6326.47 806C6343.81 856.667 6370.81 895.333 6407.47 922C6444.14 948 6487.81 961 6538.47 961C6570.47 961 6598.47 956 6622.47 946C6647.14 935.333 6666.14 920.667 6679.47 902C6692.81 883.333 6699.47 861.667 6699.47 837C6699.47 800.333 6689.47 772 6669.47 752C6649.47 732 6620.81 716.667 6583.47 706L6449.47 666C6396.81 650.667 6356.14 625 6327.47 589C6299.47 553 6285.47 512 6285.47 466C6285.47 426.667 6295.14 392 6314.47 362C6333.81 331.333 6360.14 307.333 6393.47 290C6427.47 272.667 6465.81 264 6508.47 264C6553.14 264 6593.14 272.333 6628.47 289C6664.47 305 6694.81 326.333 6719.47 353C6744.14 379.667 6761.81 409.333 6772.47 442L6702.47 470C6686.47 426 6661.47 392.667 6627.47 370C6594.14 347.333 6554.81 336 6509.47 336C6480.81 336 6455.47 341 6433.47 351C6412.14 361 6395.47 375.333 6383.47 394C6371.47 412.667 6365.47 434.667 6365.47 460C6365.47 490.667 6375.14 518.333 6394.47 543C6413.81 567 6443.47 585 6483.47 597L6601.47 632C6660.14 649.333 6704.47 674.333 6734.47 707C6764.47 739.667 6779.47 780.667 6779.47 830C6779.47 870 6769.14 905.333 6748.47 936C6728.47 966 6700.14 989.667 6663.47 1007C6627.47 1024.33 6585.81 1033 6538.47 1033ZM7062.96 1021V351H6856.96V276H7346.96V351H7142.96V1021H7062.96ZM7707.68 1033C7655.01 1033 7608.68 1022 7568.68 1000C7528.68 978 7497.68 948 7475.68 910C7453.68 871.333 7442.68 827.333 7442.68 778V276H7522.68V778C7522.68 814 7530.34 845.667 7545.68 873C7561.68 899.667 7583.34 920.667 7610.68 936C7638.68 950.667 7671.01 958 7707.68 958C7744.34 958 7776.34 950.667 7803.68 936C7831.68 920.667 7853.34 899.667 7868.68 873C7884.68 845.667 7892.68 814 7892.68 778V276H7972.68V778C7972.68 827.333 7961.68 871.333 7939.68 910C7917.68 948 7886.68 978 7846.68 1000C7807.34 1022 7761.01 1033 7707.68 1033ZM8145.87 1021V276H8390.87C8464.87 276 8529.2 291.333 8583.87 322C8638.54 352 8680.87 395 8710.87 451C8740.87 506.333 8755.87 572 8755.87 648C8755.87 723.333 8740.87 789 8710.87 845C8680.87 901 8638.54 944.333 8583.87 975C8529.2 1005.67 8464.87 1021 8390.87 1021H8145.87ZM8225.87 946H8390.87C8448.2 946 8497.87 934 8539.87 910C8581.87 885.333 8614.2 850.667 8636.87 806C8660.2 761.333 8671.87 708.667 8671.87 648C8671.87 587.333 8660.2 535 8636.87 491C8613.54 446.333 8580.87 412 8538.87 388C8496.87 363.333 8447.54 351 8390.87 351H8225.87V946ZM8888.06 1021V276H8968.06V1021H8888.06ZM9494.92 1033C9442.92 1033 9394.25 1023.67 9348.92 1005C9304.25 985.667 9264.92 959 9230.92 925C9196.92 890.333 9170.25 849.667 9150.92 803C9131.58 755.667 9121.92 704 9121.92 648C9121.92 592 9131.58 540.667 9150.92 494C9170.25 446.667 9196.92 406 9230.92 372C9264.92 337.333 9304.25 310.667 9348.92 292C9394.25 273.333 9442.92 264 9494.92 264C9546.92 264 9595.25 273.667 9639.92 293C9685.25 311.667 9724.92 338.333 9758.92 373C9792.92 407 9819.58 447.333 9838.92 494C9858.25 540.667 9867.92 592 9867.92 648C9867.92 704 9858.25 755.667 9838.92 803C9819.58 849.667 9792.92 890.333 9758.92 925C9724.92 959 9685.25 985.667 9639.92 1005C9595.25 1023.67 9546.92 1033 9494.92 1033ZM9494.92 958C9538.25 958 9577.58 950 9612.92 934C9648.92 918 9679.92 895.667 9705.92 867C9731.92 838.333 9751.92 805.333 9765.92 768C9780.58 730.667 9787.92 690.667 9787.92 648C9787.92 606 9780.58 566.333 9765.92 529C9751.92 491.667 9731.92 458.667 9705.92 430C9679.92 401.333 9648.92 379 9612.92 363C9577.58 347 9538.25 339 9494.92 339C9451.58 339 9411.92 347 9375.92 363C9340.58 379 9309.92 401.333 9283.92 430C9257.92 458.667 9237.58 491.667 9222.92 529C9208.92 566.333 9201.92 606 9201.92 648C9201.92 690.667 9208.92 730.667 9222.92 768C9237.58 805.333 9257.92 838.333 9283.92 867C9309.92 895.667 9340.92 918 9376.92 934C9412.92 950 9452.25 958 9494.92 958Z" fill="white"/>
</svg>
